<svg width="72" height="65" viewBox="0 0 72 65" fill="none" xmlns="http://www.w3.org/2000/svg">
<path d="M29.4199 64.0684L33.3544 56.6494L58.3237 56.215L54.4414 63.6538L29.4199 64.0684Z" fill="#FDE4C3"/>
<path d="M28.1823 63.4138L32.1414 56.2798L19.3257 33.8806L15.3018 41.2303L28.1823 63.4138Z" fill="#E3E3E3"/>
<path d="M12.9222 10.6353L17.1513 17.8883L5.05704 40.5436L0.785156 33.3274L12.9222 10.6353Z" fill="#FDE4C3"/>
<path d="M14.0859 9.85111L18.0649 16.9837L43.1538 16.6922L39.0267 9.39319L14.0859 9.85111Z" fill="#E3E3E3"/>
<path d="M6.28027 42.1369L14.4438 41.9713L27.319 64.1923L19.1648 64.4146L6.28027 42.1369Z" fill="#E3E3E3"/>
<path d="M6.20605 40.6983L14.1441 40.6971L26.4171 18.0063L18.2664 18.057L6.20605 40.6983Z" fill="#FDE4C3"/>
<path d="M59.1041 54.1152L54.875 46.8624L66.9692 24.207L71.2412 31.4232L59.1041 54.1152Z" fill="#E3E3E3"/>
<path d="M57.9406 54.8995L53.9617 47.767L28.873 48.0583L32.9998 55.3573L57.9406 54.8995Z" fill="#FDE4C3"/>
<path d="M42.8492 0.560791L38.9147 7.97952L13.9453 8.41401L17.8277 0.975121L42.8492 0.560791Z" fill="#E3E3E3"/>
<path d="M44.087 1.21533L40.1279 8.34912L52.9436 30.7486L56.9675 23.3989L44.087 1.21533Z" fill="#FDE4C3"/>
<path d="M65.9547 22.3978L57.7911 22.5634L44.916 0.342567L53.07 0.120117L65.9547 22.3978Z" fill="#FDE4C3"/>
<path d="M66.0287 23.8365L58.0907 23.8377L45.8174 46.5285L53.9684 46.4778L66.0287 23.8365Z" fill="#E3E3E3"/>
</svg>
