<svg width="1022" height="301" viewBox="0 0 1022 301" fill="none" xmlns="http://www.w3.org/2000/svg">
<g clip-path="url(#clip0_733_1281)">
<rect x="0.255859" y="0.188965" width="1020.76" height="300" rx="6" fill="white"/>
<path d="M230.911 -17.4891C264.111 26.3109 265.811 90.9109 261.311 150.911C256.711 210.911 245.711 266.311 212.511 316.311C179.411 366.311 124.011 410.911 64.011 415.511C4.011 420.111 -60.589 384.711 -85.589 334.711C-110.589 284.711 -95.989 220.111 -96.189 155.311C-96.489 90.4109 -111.489 25.4109 -86.489 -18.3891C-61.489 -62.2891 3.51099 -84.8891 68.411 -84.6891C133.211 -84.3891 197.811 -61.2891 230.911 -17.4891Z" fill="#E5989B"/>
<path d="M509.274 -28.4354C552.374 -3.13545 572.774 62.8646 557.374 113.565C542.074 164.265 491.074 199.565 447.974 249.565C404.774 299.565 369.474 364.265 317.374 380.965C265.274 397.665 196.374 366.565 170.574 316.565C144.774 266.565 161.874 197.665 172.974 139.965C184.074 82.1646 189.074 35.5646 214.874 10.1646C240.774 -15.1354 287.374 -19.1354 343.774 -28.8354C400.074 -38.4354 466.074 -53.8354 509.274 -28.4354Z" fill="#6D6875"/>
<path d="M615.854 9.13189C652.754 41.3319 691.054 76.6319 700.854 121.832C710.654 166.932 691.854 221.832 655.054 271.832C618.154 321.832 563.254 366.932 511.554 363.732C459.754 360.632 411.254 309.132 369.954 259.132C328.554 209.132 294.454 160.632 292.354 109.932C290.254 59.2319 320.054 6.43189 361.454 -25.7681C402.754 -57.8681 455.554 -69.4681 499.654 -60.6681C543.754 -51.9681 579.054 -22.9681 615.854 9.13189Z" fill="#B5838D"/>
<path d="M864.196 -35.2056C914.196 4.49443 969.596 49.0944 974.396 98.2944C979.096 147.594 933.096 201.594 883.096 239.394C833.096 277.194 779.096 298.894 716.896 307.194C654.596 315.394 584.196 310.194 546.196 272.394C508.196 234.494 502.596 164.094 520.196 111.194C537.696 58.1944 578.396 22.8944 616.396 -16.8056C654.396 -56.4056 689.696 -100.406 729.696 -105.006C769.596 -109.606 814.196 -74.8056 864.196 -35.2056Z" fill="#FFCDB2"/>
<path d="M1027.7 -14.3829C1052.7 17.9171 1042.1 78.5171 1047.1 144.217C1052.2 209.817 1072.9 280.517 1047.9 326.917C1022.9 373.217 952.199 395.117 886.899 389.717C821.599 384.317 761.799 351.517 729.099 305.217C696.399 258.817 690.999 199.017 696.199 144.317C701.299 89.6171 717.199 40.1171 749.799 7.81709C782.499 -24.5829 831.999 -39.6829 886.999 -45.2829C942.099 -50.7829 1002.7 -46.6829 1027.7 -14.3829Z" fill="#FFB4A2"/>
</g>
<defs>
<clipPath id="clip0_733_1281">
<rect x="0.255859" y="0.188965" width="1020.76" height="300" rx="6" fill="white"/>
</clipPath>
</defs>
</svg>
