<svg width="295" height="292" viewBox="0 0 295 292" fill="none" xmlns="http://www.w3.org/2000/svg">
<path d="M140.729 87.1912L140.729 114.377L65.9213 155.996L65.6543 128.806L140.729 87.1912Z" fill="#E3E3E3"/>
<path d="M143.345 87.1912L143.345 114.347L218.256 156.571L218.561 129.403L143.345 87.1912Z" fill="#FDE4C3"/>
<path d="M97.4603 166.464L121.004 152.87L194.451 196.846L171.037 210.672L97.4603 166.464Z" fill="#E3E3E3"/>
<path d="M96.1523 164.198L119.67 150.62L118.782 64.6335L95.1006 77.9533L96.1523 164.198Z" fill="#FDE4C3"/>
<path d="M187.346 163.414L163.802 149.821L165.163 64.2263L188.844 77.5899L187.346 163.414Z" fill="#E3E3E3"/>
<path d="M186.038 165.679L162.521 152.102L88.4982 195.864L111.874 209.713L186.038 165.679Z" fill="#FDE4C3"/>
</svg>
