<svg width="300" height="348" viewBox="0 0 300 348" fill="none" xmlns="http://www.w3.org/2000/svg">
<path d="M127.639 255.372L140.753 230.643L223.985 229.194L211.044 253.991L127.639 255.372Z" fill="#FDE4C3"/>
<path d="M123.514 253.19L136.711 229.411L93.9923 154.746L80.579 179.245L123.514 253.19Z" fill="#E3E3E3"/>
<path d="M72.6451 77.2618L86.7423 101.439L46.4281 176.957L32.1884 152.902L72.6451 77.2618Z" fill="#FDE4C3"/>
<path d="M76.5241 74.6482L89.7873 98.4234L173.417 97.452L159.66 73.1218L76.5241 74.6482Z" fill="#E3E3E3"/>
<path d="M50.5056 182.268L77.7172 181.715L120.635 255.785L93.4541 256.527L50.5056 182.268Z" fill="#E3E3E3"/>
<path d="M50.2598 177.472L76.7201 177.468L117.631 101.832L90.4611 102.001L50.2598 177.472Z" fill="#FDE4C3"/>
<path d="M226.586 222.196L212.489 198.019L252.803 122.501L267.043 146.556L226.586 222.196Z" fill="#E3E3E3"/>
<path d="M222.707 224.809L209.444 201.034L125.815 202.006L139.571 226.336L222.707 224.809Z" fill="#FDE4C3"/>
<path d="M172.402 43.6805L159.288 68.4096L76.0559 69.8579L88.9971 45.0616L172.402 43.6805Z" fill="#E3E3E3"/>
<path d="M176.527 45.8623L163.33 69.6416L206.049 144.306L219.462 119.807L176.527 45.8623Z" fill="#FDE4C3"/>
<path d="M249.421 116.471L222.21 117.023L179.292 42.9532L206.473 42.2117L249.421 116.471Z" fill="#FDE4C3"/>
<path d="M249.667 121.266L223.207 121.27L182.296 196.906L209.466 196.737L249.667 121.266Z" fill="#E3E3E3"/>
<path d="M28.3955 282.896L51.0515 330H42.7955L38.7635 320.784H17.1955L13.1635 330H5.1635L27.6915 282.896H28.3955ZM25.1955 302.928L20.0755 314.32H35.9475L30.8915 302.992L28.1395 296.528H28.0115L25.1955 302.928ZM63.7825 330.64C59.7292 330.64 56.9345 329.445 55.3985 327.056C53.9052 324.667 53.1585 321.339 53.1585 317.072V300.624H60.0705V315.344C60.0705 317.776 60.1985 319.675 60.4545 321.04C60.7532 322.363 61.3078 323.344 62.1185 323.984C62.9718 324.624 64.2305 324.944 65.8945 324.944C67.0892 324.944 68.2412 324.603 69.3505 323.92C70.4598 323.237 71.3558 322.32 72.0385 321.168C72.7638 319.973 73.1265 318.672 73.1265 317.264V300.624H79.9745V330H74.3425L73.5745 325.712C72.5078 327.376 71.1638 328.613 69.5425 329.424C67.9638 330.235 66.0438 330.64 63.7825 330.64ZM91.729 306.256H86.545V300.624H91.729V288.656L98.705 287.12V300.624H105.489V306.256H98.705V330H91.729V306.256ZM111.427 282.96H118.147V300.624L117.891 306.064C118.701 304.272 120.003 302.8 121.795 301.648C123.587 300.453 125.677 299.856 128.067 299.856C131.096 299.856 133.421 300.496 135.043 301.776C136.664 303.013 137.752 304.763 138.307 307.024C138.861 309.285 139.139 312.229 139.139 315.856V330H132.291V315.792C132.291 313.317 132.141 311.376 131.843 309.968C131.587 308.56 131.032 307.493 130.179 306.768C129.368 306.043 128.173 305.68 126.595 305.68C125.315 305.68 124.013 306.064 122.691 306.832C121.411 307.6 120.344 308.731 119.491 310.224C118.637 311.675 118.211 313.403 118.211 315.408V330H111.427V282.96ZM161.807 330.64C158.308 330.64 155.386 329.957 153.039 328.592C150.692 327.184 148.964 325.328 147.855 323.024C146.746 320.677 146.191 318.117 146.191 315.344C146.191 312.229 146.831 309.499 148.111 307.152C149.434 304.805 151.247 303.013 153.551 301.776C155.855 300.496 158.458 299.856 161.359 299.856C165.882 299.856 169.231 301.115 171.407 303.632C173.626 306.107 174.735 309.605 174.735 314.128C174.735 315.28 174.671 316.475 174.543 317.712H153.423C153.892 320.315 154.81 322.192 156.175 323.344C157.583 324.496 159.524 325.072 161.999 325.072C164.047 325.072 165.732 324.901 167.055 324.56C168.378 324.219 169.594 323.749 170.703 323.152L172.815 328.08C171.748 328.763 170.298 329.36 168.463 329.872C166.628 330.384 164.41 330.64 161.807 330.64ZM168.015 312.912C168.058 310.267 167.482 308.411 166.287 307.344C165.092 306.235 163.386 305.68 161.167 305.68C156.687 305.68 154.106 308.091 153.423 312.912H168.015ZM181.982 300.624H188.766L188.83 306C189.64 304.208 190.92 302.736 192.67 301.584C194.419 300.432 196.467 299.856 198.814 299.856C201.843 299.856 204.168 300.496 205.79 301.776C207.411 303.013 208.499 304.763 209.054 307.024C209.608 309.285 209.886 312.229 209.886 315.856V330H202.974V316.048C202.974 312.336 202.611 309.669 201.886 308.048C201.16 306.384 199.667 305.552 197.406 305.552C196.126 305.552 194.824 305.957 193.502 306.768C192.179 307.536 191.07 308.667 190.174 310.16C189.32 311.653 188.894 313.403 188.894 315.408V330H181.982V300.624ZM221.354 306.256H216.17V300.624H221.354V288.656L228.33 287.12V300.624H235.114V306.256H228.33V330H221.354V306.256ZM241.244 300.624H248.412V330H241.244V300.624ZM244.764 295.12C243.441 295.12 242.332 294.672 241.436 293.776C240.54 292.88 240.092 291.771 240.092 290.448C240.092 289.253 240.54 288.229 241.436 287.376C242.332 286.523 243.441 286.096 244.764 286.096C246.044 286.096 247.132 286.523 248.028 287.376C248.924 288.229 249.372 289.253 249.372 290.448C249.372 291.771 248.924 292.88 248.028 293.776C247.174 294.672 246.086 295.12 244.764 295.12ZM270.974 330.64C268.328 330.64 265.875 330.021 263.614 328.784C261.395 327.504 259.603 325.712 258.238 323.408C256.915 321.061 256.254 318.331 256.254 315.216C256.254 312.144 256.83 309.456 257.982 307.152C259.176 304.848 260.862 303.056 263.038 301.776C265.214 300.496 267.774 299.856 270.718 299.856C272.424 299.856 274.024 300.155 275.518 300.752C277.011 301.349 278.27 302.096 279.294 302.992C280.318 303.845 281 304.699 281.342 305.552L281.47 300.624H288.062V330H281.534L281.406 324.816C280.68 326.352 279.358 327.717 277.438 328.912C275.518 330.064 273.363 330.64 270.974 330.64ZM272.126 324.88C274.558 324.88 276.606 324.048 278.27 322.384C279.934 320.677 280.766 318.459 280.766 315.728V315.28C280.766 313.445 280.382 311.803 279.614 310.352C278.846 308.901 277.8 307.771 276.478 306.96C275.155 306.149 273.704 305.744 272.126 305.744C269.395 305.744 267.283 306.64 265.79 308.432C264.296 310.181 263.55 312.464 263.55 315.28C263.55 318.139 264.275 320.464 265.726 322.256C267.219 324.005 269.352 324.88 272.126 324.88Z" fill="#E2E2E2"/>
</svg>
