<svg width="325" height="213" viewBox="0 0 325 213" fill="none" xmlns="http://www.w3.org/2000/svg">
<path d="M163.667 26.8052C163.92 26.8052 164.164 26.8493 164.398 26.9264H203.321V0H108.578V27.9065C109.114 27.2347 109.885 26.8052 110.752 26.8052H163.667Z" fill="white"/>
<path d="M238.17 38.5229L280.223 96.935H319.097V35.4393H290.733V57.4429L274.909 35.4393H267.44C265.812 35.4393 264.496 33.9525 264.496 32.1134V30.1201C264.496 28.2809 265.812 26.7942 267.44 26.7942H268.698L249.412 0H209.68V96.935H238.16V38.5229H238.17ZM255.096 30.1311C255.096 28.2919 256.413 26.8052 258.041 26.8052C259.669 26.8052 260.986 28.2919 260.986 30.1311V32.1244C260.986 33.9635 259.669 35.4503 258.041 35.4503C256.413 35.4503 255.096 33.9635 255.096 32.1244V30.1311ZM238.638 30.1311C238.638 28.2919 239.954 26.8052 241.573 26.8052H246.867C248.496 26.8052 249.812 28.2919 249.812 30.1311V32.1244C249.812 33.9635 248.496 35.4503 246.867 35.4503H241.573C239.954 35.4503 238.638 33.9635 238.638 32.1244V30.1311Z" fill="white"/>
<path d="M319.096 0H290.732V26.8052H319.096V0Z" fill="white"/>
<path d="M215.217 149.972C213.735 149.972 212.535 148.486 212.535 146.658V144.665C212.535 143.497 213.023 142.484 213.754 141.889C212.136 136.515 209.923 132 207.095 128.42C204.16 124.687 200.387 121.681 195.775 119.379C191.163 117.078 186.151 115.447 180.721 114.479C175.29 113.509 169.05 113.025 161.99 113.025C144.45 113.025 131.404 116.912 122.853 124.687C114.302 132.473 110.031 144.455 110.031 160.655C110.031 178.143 114.214 191.062 122.57 199.387C130.936 207.724 144.333 211.887 162.761 211.887C170.19 211.887 176.694 211.38 182.271 210.367C187.848 209.354 192.84 207.68 197.267 205.323C201.684 202.977 205.252 199.894 207.973 196.072C210.683 192.251 212.77 187.581 214.213 182.053C215.665 176.524 216.387 169.994 216.387 162.45C216.387 157.935 216.065 153.805 215.49 149.972H215.188H215.217ZM181.335 180.522C177.025 184.487 170.941 186.458 163.072 186.458C155.204 186.458 149.003 184.267 144.927 179.894C140.842 175.522 138.804 169.697 138.804 162.417C138.804 158.64 139.282 155.281 140.247 152.329C141.213 149.378 142.675 146.845 144.645 144.73C146.614 142.616 149.12 141.019 152.162 139.962C155.204 138.905 158.734 138.376 162.741 138.376C170.385 138.376 176.469 140.425 181.003 144.521C185.528 148.618 187.799 154.587 187.799 162.417C187.799 170.247 185.644 176.558 181.345 180.511L181.335 180.522ZM199.129 146.658C199.129 148.497 197.93 149.972 196.448 149.972H191.621C190.139 149.972 188.94 148.486 188.94 146.658V144.665C188.94 142.825 190.139 141.35 191.621 141.35H196.448C197.93 141.35 199.129 142.837 199.129 144.665V146.658ZM209.318 146.658C209.318 148.497 208.119 149.972 206.637 149.972C205.155 149.972 203.955 148.486 203.955 146.658V144.665C203.955 142.825 205.155 141.35 206.637 141.35C208.119 141.35 209.318 142.837 209.318 144.665V146.658Z" fill="white"/>
<path d="M203.321 70.0086H137.059V61.3082H199.158V35.4832H137.059V35.4392H110.743C109.875 35.4392 109.105 35.0097 108.568 34.3379V96.935H203.311V70.0086H203.321Z" fill="white"/>
<path d="M295.13 114.534V171.977L280.699 149.973H232.923C231.441 149.973 230.241 148.486 230.241 146.658V144.665C230.241 142.826 231.441 141.35 232.923 141.35H275.034L257.445 114.545H221.213V141.35H222.734C224.216 141.35 225.415 142.837 225.415 144.665V146.658C225.415 148.497 224.216 149.973 222.734 149.973H221.213V211.469H247.188V153.057L285.545 211.469H320.997V114.534H295.13Z" fill="white"/>
<path d="M5.27484 96.935H100.876V70.1518H45.3775L94.8405 35.4503H91.3498C89.7216 35.4503 88.4055 33.9635 88.4055 32.1244V30.1311C88.4055 28.2919 89.7216 26.8052 91.3498 26.8052H99.5791C100.047 26.8052 100.486 26.9374 100.876 27.1576V0H3.68555V26.9264H60.1686L3.68555 65.9996V96.935H5.27484ZM79.0062 30.1311C79.0062 28.2919 80.3226 26.8052 81.9509 26.8052C83.5791 26.8052 84.8855 28.2919 84.8855 30.1311V32.1244C84.8855 33.9635 83.5694 35.4503 81.9509 35.4503C80.3323 35.4503 79.0062 33.9635 79.0062 32.1244V30.1311ZM62.5479 30.1311C62.5479 28.2919 63.864 26.8052 65.4922 26.8052H70.7869C72.4151 26.8052 73.7312 28.2919 73.7312 30.1311V32.1244C73.7312 33.9635 72.4151 35.4503 70.7869 35.4503H65.4922C63.864 35.4503 62.5479 33.9635 62.5479 32.1244V30.1311Z" fill="white"/>
<path d="M29.6115 150.633C30.684 148.651 32.1368 147.021 33.9601 145.732C35.7834 144.444 38.2697 143.387 41.4287 142.561C44.588 141.735 48.2834 141.316 52.5244 141.316C57.2827 141.316 61.4655 141.889 65.0634 143.045C68.6709 144.202 71.362 145.49 73.1463 146.911C74.9306 148.343 76.3834 149.951 77.4949 151.746C78.6063 153.541 79.2599 154.807 79.4448 155.545C79.6302 156.283 79.757 156.878 79.8349 157.34H106.482C106.482 150.523 105.556 144.543 103.694 139.389C101.831 134.235 98.8578 129.698 94.7724 125.788C90.687 121.879 85.1099 118.883 78.0506 116.813C70.9916 114.743 62.5577 113.707 52.7391 113.707C43.9637 113.707 36.3879 114.588 29.9917 116.328C23.5956 118.079 18.1354 120.91 13.6016 124.819C9.06774 128.729 5.66487 133.938 3.40283 140.424C1.13103 146.911 0 154.719 0 163.826C0 172.295 0.88727 179.432 2.67156 185.224C4.45587 191.017 7.4102 195.973 11.5345 200.07C15.6589 204.166 21.1385 207.162 27.9832 209.045C34.8181 210.928 43.2912 211.876 53.4019 211.876C61.6509 211.876 68.8952 211.16 75.1452 209.739C81.3852 208.318 86.4652 206.402 90.3652 204.012C94.2652 201.623 97.4438 198.627 99.901 195.037C102.358 191.447 104.064 187.746 105.03 183.925C105.995 180.104 106.482 175.841 106.482 171.15H79.8349L79.6106 172.527C79.4645 173.452 78.8891 174.575 77.8848 175.908C76.8806 177.24 75.5252 178.551 73.8191 179.839C72.1127 181.128 69.3923 182.229 65.6777 183.154C61.9627 184.079 57.5752 184.53 52.5244 184.53C47.4741 184.53 43.4569 183.98 40.0345 182.879C36.6121 181.777 33.9796 180.192 32.1173 178.11C30.255 176.04 28.9192 173.76 28.1002 171.271C27.2812 168.782 26.8716 165.93 26.8716 162.714C26.8716 160.412 27.0569 158.32 27.4274 156.437C27.7979 154.554 28.5195 152.615 29.6017 150.633H29.6115Z" fill="white"/>
</svg>
