<svg width="17" height="22" viewBox="0 0 17 22" fill="none" xmlns="http://www.w3.org/2000/svg">
<path d="M8.90327 4.14404H3.61195C3.28734 4.14404 3.03125 4.40733 3.03125 4.72474C3.03125 5.04578 3.28734 5.30545 3.61195 5.30545H8.90321C9.22782 5.30545 9.48391 5.04216 9.48391 4.72474C9.48397 4.40014 9.22068 4.14404 8.90327 4.14404Z" fill="#ffffff"/>
<path d="M11.0205 7.63184H3.61195C3.28734 7.63184 3.03125 7.89513 3.03125 8.21254C3.03125 8.53352 3.28734 8.79324 3.61195 8.79324H11.0205C11.3451 8.79324 11.6012 8.52995 11.6012 8.21254C11.6012 7.88793 11.3379 7.63184 11.0205 7.63184Z" fill="#ffffff"/>
<path d="M7.13589 11.1162H3.61195C3.28734 11.1162 3.03125 11.3795 3.03125 11.6969C3.03125 12.0215 3.29454 12.2776 3.61195 12.2776H7.13589C7.4605 12.2776 7.71659 12.0143 7.71659 11.6969C7.71659 11.3759 7.45692 11.1162 7.13589 11.1162Z" fill="#ffffff"/>
<path d="M15.6501 11.7149V2.33338C15.6501 1.48939 14.9612 0.796875 14.1136 0.796875H2.35877C1.51478 0.796875 0.822266 1.48576 0.822266 2.33338V15.1883C0.822266 15.5922 0.98457 15.9854 1.26951 16.2703L3.65726 18.6545C3.9422 18.9394 4.33895 19.1017 4.73932 19.1017H10.0883V21.2117C10.0883 21.439 10.2218 21.6518 10.4346 21.7455C10.6402 21.8393 10.8927 21.8032 11.0586 21.6482L12.202 20.6238L13.3453 21.6482C13.5438 21.7997 13.8106 21.7997 13.9693 21.7455C14.1893 21.677 14.3156 21.4426 14.3156 21.2117V17.6301C15.5491 16.9015 16.3715 15.5741 16.3715 14.0521C16.3715 13.1865 16.1046 12.3821 15.6501 11.7149ZM3.76544 17.118L2.81684 16.1693H3.76544V17.118ZM10.0955 17.9439H4.9341V17.9403V15.5814C4.9341 15.2568 4.67081 15.0007 4.3534 15.0007H1.99449V2.33338C1.99449 2.13141 2.1568 1.96185 2.36602 1.96185H14.1172C14.3192 1.96185 14.4887 2.12415 14.4887 2.33338V10.5679C13.8323 10.135 13.0532 9.88618 12.2128 9.88618C9.9152 9.88618 8.04684 11.7546 8.04684 14.0521C8.04684 15.5742 8.86918 16.9052 10.0955 17.6301V17.9439ZM13.165 19.9025H13.1613L12.6023 19.3975C12.3823 19.1991 12.0468 19.1991 11.8232 19.3975L11.2641 19.9025V18.099C11.5707 18.1712 11.8881 18.2108 12.2127 18.2108C12.541 18.2108 12.8584 18.1675 13.165 18.099V19.9025ZM12.2055 17.0494C10.5536 17.0494 9.20824 15.7041 9.20824 14.0521C9.20824 12.4002 10.5536 11.0548 12.2055 11.0548C13.8575 11.0548 15.2028 12.4002 15.2028 14.0521C15.2028 15.7041 13.8611 17.0494 12.2055 17.0494Z" fill="#ffffff"/>
</svg>
