<svg width="22" height="22" viewBox="0 0 22 22" fill="none" xmlns="http://www.w3.org/2000/svg">
<path d="M20.5801 21.2969H0.580078" stroke="#ffffff" stroke-linecap="round"/>
<path d="M2.58008 21.2969V10.2969" stroke="#ffffff" stroke-linecap="round"/>
<path d="M15.1077 1.29688H6.05209C4.84927 1.29688 4.24786 1.29688 3.76456 1.59558C3.28125 1.89428 3.01229 2.43219 2.47438 3.50802L1.07076 7.05617C0.746469 7.87593 0.462739 8.84213 1.00862 9.53438C1.37484 9.99878 1.94252 10.2969 2.57986 10.2969C3.68443 10.2969 4.57986 9.40147 4.57986 8.29688C4.57986 9.40147 5.47529 10.2969 6.57986 10.2969C7.68443 10.2969 8.57986 9.40147 8.57986 8.29688C8.57986 9.40147 9.47525 10.2969 10.5798 10.2969C11.6844 10.2969 12.5798 9.40147 12.5798 8.29688C12.5798 9.40147 13.4752 10.2969 14.5798 10.2969C15.6844 10.2969 16.5798 9.40147 16.5798 8.29688C16.5798 9.40147 17.4752 10.2969 18.5798 10.2969C19.2172 10.2969 19.7849 9.99878 20.1511 9.53438C20.697 8.84213 20.4133 7.87593 20.089 7.05617L18.6854 3.50802C18.1475 2.43219 17.8785 1.89428 17.3952 1.59558C16.9119 1.29688 16.3105 1.29688 15.1077 1.29688Z" stroke="#ffffff" stroke-linejoin="round"/>
<path d="M8.08008 20.7969V17.7969C8.08008 16.8623 8.08008 16.395 8.28104 16.0469C8.41269 15.8189 8.60208 15.6295 8.83008 15.4979C9.17818 15.2969 9.64548 15.2969 10.5801 15.2969C11.5147 15.2969 11.982 15.2969 12.3301 15.4979C12.5581 15.6295 12.7475 15.8189 12.8791 16.0469C13.0801 16.395 13.0801 16.8623 13.0801 17.7969V20.7969" stroke="#ffffff" stroke-linecap="round"/>
<path d="M18.5801 21.2969V10.2969" stroke="#ffffff" stroke-linecap="round"/>
</svg>
