<svg width="25" height="22" viewBox="0 0 25 22" fill="none" xmlns="http://www.w3.org/2000/svg">
<path d="M16.4767 10.8844C16.8746 10.8844 17.1974 10.5616 17.1974 10.1637V2.37063C17.1974 1.97269 16.8746 1.64992 16.4767 1.64992H8.68362C8.28568 1.64992 7.9629 1.97269 7.9629 2.37063V10.1637C7.9629 10.5616 8.28568 10.8844 8.68362 10.8844H16.4767ZM16.4767 11.8454H8.68362C7.75497 11.8454 7.00195 11.0923 7.00195 10.1637V2.37063C7.00195 1.44198 7.75497 0.688965 8.68362 0.688965H16.4767C17.4053 0.688965 18.1583 1.44198 18.1583 2.37063V10.1637C18.1583 11.0923 17.4053 11.8454 16.4767 11.8454Z" fill="#ffffff"/>
<path d="M15.5609 6.14333L17.2305 7.37455C17.4441 7.53204 17.7449 7.48657 17.9024 7.27301C18.0599 7.05945 18.0144 6.75863 17.8009 6.60114L16.1312 5.36992C15.7924 5.11999 15.3299 5.11999 14.9908 5.36976L13.6065 6.39072L12.2237 5.37027C11.8845 5.11995 11.4217 5.11995 11.0825 5.37027L9.69926 6.39077L8.03127 5.15983C7.81776 5.00227 7.51694 5.04759 7.35936 5.26111C7.20177 5.47463 7.24712 5.77544 7.46064 5.93303L9.1286 7.16401C9.46782 7.41434 9.93056 7.41434 10.2698 7.16401L11.653 6.14352L13.0358 7.16401C13.3751 7.41434 13.8378 7.41434 14.177 7.16401L15.5609 6.14333ZM9.90902 12.6948H5.58364L3.58889 10.7001C2.90492 10.0161 1.79567 10.0161 1.1117 10.7001C0.426273 11.3869 0.426742 12.495 1.1105 13.1787L3.61979 15.688C3.95535 16.0236 4.40516 16.203 4.87081 16.1995C4.87365 16.1997 8.59372 16.2001 8.59372 16.2001V20.7911C8.59372 21.0564 8.80883 21.2715 9.0742 21.2715C9.33956 21.2715 9.55467 21.0564 9.55467 20.7911V15.7197C9.55467 15.4543 9.33956 15.2392 9.0742 15.2392H4.88496C4.65497 15.2413 4.45157 15.1608 4.29928 15.0085L1.79 12.4992C1.48107 12.1903 1.48107 11.6898 1.7899 11.3811C2.1012 11.0709 2.6011 11.0713 2.9094 11.3796L5.04487 13.515C5.08948 13.5596 5.14245 13.595 5.20075 13.6192C5.25905 13.6433 5.32153 13.6557 5.38462 13.6557H9.88784C9.89459 13.6563 10.3489 13.6579 10.3489 13.6579C10.7869 13.6579 11.1421 14.0131 11.1421 14.4512V20.791C11.1421 21.0564 11.3573 21.2715 11.6226 21.2715C11.888 21.2715 12.1031 21.0564 12.1031 20.791V14.4512C12.1031 13.4824 11.3176 12.6969 10.3489 12.6969H9.95639C9.94698 12.6963 9.93417 12.6958 9.90902 12.6948V12.6948ZM14.8461 12.697C13.8773 12.697 13.0919 13.4824 13.0919 14.4512V20.7911C13.0919 21.0565 13.307 21.2716 13.5723 21.2716C13.8377 21.2716 14.0528 21.0565 14.0528 20.7911V14.4512C14.0528 14.0131 14.408 13.6579 14.8461 13.6579H15.2653L15.3014 13.6558H19.8104C19.9378 13.6558 20.06 13.6052 20.1501 13.5151L22.2856 11.3796C22.5939 11.0713 23.0938 11.0709 23.4026 11.3784C23.7139 11.6898 23.7139 12.1903 23.405 12.4992L20.8957 15.0085C20.7434 15.1608 20.54 15.2413 20.3269 15.2385C20.2412 15.2439 20.2412 15.2439 20.2205 15.2488C20.232 15.2454 20.232 15.2454 20.3153 15.2392H16.1208C15.8554 15.2392 15.6403 15.4543 15.6403 15.7197V20.7911C15.6403 21.0565 15.8554 21.2716 16.1208 21.2716C16.3862 21.2716 16.6013 21.0565 16.6013 20.7911V16.2002H20.3153C20.7859 16.2046 21.2382 16.025 21.5752 15.688L24.0845 13.1788C24.7682 12.495 24.7687 11.387 24.0858 10.7029C23.3993 10.0162 22.2901 10.0162 21.6061 10.7001L19.6114 12.6949H15.286C15.2577 12.696 15.245 12.6965 15.2352 12.6973L14.8461 12.697L14.8461 12.697Z" fill="#ffffff"/>
</svg>
